<?xml version="1.0" standalone="no"?>
<!DOCTYPE svg PUBLIC "-//W3C//DTD SVG 20010904//EN"
 "http://www.w3.org/TR/2001/REC-SVG-20010904/DTD/svg10.dtd">
<svg version="1.0" xmlns="http://www.w3.org/2000/svg"
 width="756.000000pt" height="756.000000pt" viewBox="0 0 756.000000 756.000000"
 preserveAspectRatio="xMidYMid meet">

<g transform="translate(0.000000,756.000000) scale(0.100000,-0.100000)"
fill="#000000" stroke="none">
<path d="M3460 7090 c-762 -45 -1462 -289 -2088 -727 -64 -46 -135 -98 -157
-117 l-40 -35 155 -155 c85 -86 158 -156 161 -156 4 0 60 38 126 85 532 381
1147 603 1812 655 805 62 1644 -175 2314 -655 66 -47 122 -85 126 -85 3 0 76
70 161 156 l155 155 -40 35 c-22 19 -93 71 -157 117 -573 401 -1219 643 -1898
711 -190 19 -462 26 -630 16z"/>
<path d="M3400 6139 c-466 -47 -895 -186 -1282 -417 -116 -69 -267 -172 -268
-182 0 -3 71 -76 158 -163 l159 -158 109 71 c323 210 687 342 1087 395 156 20
478 20 634 0 400 -53 764 -185 1087 -395 l109 -71 161 160 c154 154 160 161
141 176 -52 41 -251 168 -342 219 -300 167 -676 293 -1038 347 -162 24 -557
34 -715 18z"/>
<path d="M3486 5198 c-141 -12 -330 -52 -476 -100 -119 -40 -407 -176 -460
-218 l-25 -19 160 -161 161 -161 114 54 c474 224 983 222 1449 -4 l104 -51
158 158 c88 88 159 162 159 165 0 11 -147 94 -265 150 -327 154 -707 220
-1079 187z"/>
<path d="M3023 4232 c15 -17 24 -52 13 -52 -2 0 -26 11 -53 24 -26 13 -66 28
-88 31 l-40 8 23 -25 c37 -41 27 -47 -45 -27 -37 11 -76 19 -87 19 -19 0 -19
-1 2 -23 35 -37 28 -48 -19 -32 -23 8 -71 15 -107 15 l-65 0 21 -23 c12 -13
22 -26 22 -30 0 -4 -38 -7 -84 -7 l-85 0 36 -67 35 -68 -44 -5 -43 -5 45 -45
c25 -25 54 -51 65 -58 18 -11 15 -12 -22 -8 -24 2 -43 0 -43 -5 0 -5 26 -37
58 -69 l58 -60 -35 0 -35 0 39 -41 c22 -22 52 -48 68 -57 37 -22 34 -32 -10
-32 l-38 0 25 -25 c14 -13 54 -40 88 -58 60 -32 62 -35 38 -41 -15 -4 -31 -4
-36 -1 -6 4 -10 2 -10 -4 0 -12 58 -43 115 -61 59 -19 62 -23 30 -36 l-30 -12
25 -10 c14 -5 59 -15 100 -21 41 -7 78 -15 82 -19 9 -9 -2 -25 -27 -41 -16
-10 -4 -11 71 -7 154 8 265 45 337 115 38 36 77 98 77 123 0 15 -70 85 -140
140 -97 76 -273 185 -465 287 -60 32 -7 16 131 -41 148 -60 306 -146 438 -240
93 -65 101 -69 128 -57 15 6 41 26 57 44 66 75 66 171 2 300 -35 71 -116 183
-132 184 -4 1 -10 -11 -14 -26 l-6 -27 -51 57 c-57 65 -94 91 -84 59 4 -10 4
-27 0 -36 -6 -15 -9 -15 -33 7 -14 13 -43 37 -64 52 l-38 28 6 -26 c11 -42 -3
-50 -37 -22 -29 25 -119 75 -134 75 -4 0 0 -8 9 -18z"/>
<path d="M4375 4233 c-16 -9 -46 -29 -66 -44 -20 -16 -39 -29 -42 -29 -12 0
-16 33 -7 51 18 33 -6 21 -63 -31 -30 -27 -58 -50 -61 -50 -3 0 -6 17 -6 38
l0 37 -67 -68 c-65 -67 -81 -72 -83 -27 -1 28 -97 -90 -136 -167 -47 -92 -59
-195 -29 -254 22 -43 62 -87 98 -105 27 -14 30 -13 95 33 101 73 187 125 301
183 100 50 311 140 328 140 4 0 -37 -24 -93 -54 -199 -106 -380 -228 -493
-332 l-54 -50 20 -44 c56 -125 229 -209 428 -210 l70 0 -30 24 -30 24 60 7
c123 13 193 38 135 47 -38 6 -22 22 46 44 37 13 74 30 83 39 14 13 13 15 -9
15 -47 0 -53 15 -14 34 50 23 134 79 134 88 0 5 -13 8 -28 8 -16 0 -31 3 -35
6 -3 3 22 28 56 56 34 27 64 53 65 59 2 5 -11 9 -29 9 l-32 0 56 59 c32 33 57
63 57 68 0 5 -18 7 -40 5 -22 -2 -40 -2 -40 0 0 3 26 32 58 64 l57 59 -43 3
c-39 3 -42 5 -36 25 3 12 19 43 35 70 l29 47 -97 0 -96 0 21 23 c12 13 22 26
22 30 0 12 -81 8 -142 -7 -54 -12 -58 -12 -58 4 0 10 10 25 23 34 21 16 20 17
-26 11 -27 -4 -66 -13 -87 -20 -49 -17 -57 -8 -23 27 15 15 22 28 16 28 -18 0
-126 -40 -149 -55 -19 -12 -23 -12 -27 -1 -3 8 1 22 8 33 28 36 17 41 -30 16z"/>
<path d="M3685 3234 c-125 -27 -227 -76 -300 -147 -82 -79 -86 -143 -15 -216
75 -77 186 -119 335 -128 317 -18 529 115 449 283 -58 123 -320 239 -469 208z"/>
<path d="M2985 3140 c-154 -34 -286 -133 -349 -263 -33 -66 -58 -184 -54 -251
3 -45 6 -51 26 -54 63 -9 286 151 483 348 134 133 174 189 151 212 -14 14
-203 20 -257 8z"/>
<path d="M4223 3130 c-13 -5 -23 -14 -23 -20 0 -49 242 -290 431 -430 94 -70
198 -124 222 -114 22 8 22 72 2 166 -42 199 -175 338 -371 388 -81 21 -221 26
-261 10z"/>
<path d="M4065 2698 c-83 -29 -173 -119 -204 -203 -77 -202 -5 -444 176 -595
270 -226 627 -113 672 213 32 226 -92 453 -304 558 -79 39 -91 42 -182 45 -81
3 -109 0 -158 -18z"/>
<path d="M3146 2680 c-211 -75 -376 -307 -376 -530 0 -265 228 -442 485 -375
200 53 358 225 402 442 15 70 16 92 5 154 -23 135 -103 243 -220 297 -79 36
-211 42 -296 12z"/>
<path d="M4870 2432 c-34 -34 -50 -103 -50 -215 0 -260 99 -557 185 -557 28 0
87 63 119 127 94 189 65 418 -72 566 -44 47 -125 107 -145 107 -5 0 -21 -13
-37 -28z"/>
<path d="M2477 2409 c-128 -85 -207 -238 -207 -404 0 -127 40 -240 115 -322
39 -44 45 -47 71 -38 92 32 168 280 169 550 0 136 -2 154 -22 191 -34 64 -58
68 -126 23z"/>
<path d="M3651 1844 c-95 -20 -168 -60 -237 -128 -260 -260 -105 -675 272
-727 206 -29 411 78 497 258 30 63 32 75 32 173 0 99 -2 110 -32 171 -63 128
-213 235 -363 259 -80 12 -89 12 -169 -6z"/>
<path d="M4721 1674 c-54 -19 -77 -33 -160 -98 -192 -150 -324 -404 -308 -593
6 -76 25 -109 83 -138 51 -26 177 -26 248 -1 78 28 170 92 234 161 105 115
143 214 143 375 -1 163 -39 265 -111 294 -49 20 -72 20 -129 0z"/>
<path d="M2603 1605 c-72 -31 -105 -193 -69 -335 66 -260 293 -455 510 -438
83 7 123 29 147 81 38 85 21 212 -47 355 -68 141 -204 271 -344 329 -63 26
-148 30 -197 8z"/>
<path d="M3550 841 c-159 -34 -281 -110 -264 -165 26 -86 188 -202 336 -242
71 -18 182 -18 249 2 140 41 295 159 320 243 11 38 11 43 -12 67 -91 97 -398
144 -629 95z"/>
</g>
</svg>
